<?xml version="1.0" encoding="UTF-8"?>
<svg version="1.1" xmlns="http://www.w3.org/2000/svg" width="1281" height="1281">
<path d="M0 0 C0.56976562 0.23203125 1.13953125 0.4640625 1.7265625 0.703125 C0.33123078 3.85996132 -1.29914078 5.96523443 -3.75415039 8.37915039 C-4.82150169 9.43659203 -4.82150169 9.43659203 -5.91041565 10.51539612 C-6.68118942 11.26957321 -7.4519632 12.02375031 -8.24609375 12.80078125 C-9.04317245 13.59028671 -9.84025116 14.37979218 -10.66148376 15.19322205 C-14.06557509 18.56474331 -17.48115339 21.92453439 -20.89624023 25.28491211 C-29.84591666 34.10339451 -38.54334697 42.78271125 -46.2734375 52.703125 C-48.06172741 54.75197906 -49.90801178 56.72254954 -51.7734375 58.703125 C-55.97794874 63.22564912 -59.9743641 67.87095897 -63.84375 72.68359375 C-65.63508011 74.9097966 -67.44082053 77.11800616 -69.265625 79.31640625 C-75.58841754 86.9629764 -81.57534127 94.76517592 -87.32714844 102.84985352 C-91.17771709 108.24330281 -95.17553039 113.49563945 -99.2734375 118.703125 C-105.67636511 126.85262848 -111.78121268 135.18872709 -117.79345703 143.62939453 C-119.17424696 145.56414043 -120.56359776 147.49231747 -121.95703125 149.41796875 C-127.94448547 157.70766891 -133.66366635 166.15410805 -139.2734375 174.703125 C-139.83724121 175.56115723 -140.40104492 176.41918945 -140.98193359 177.30322266 C-154.23663632 197.4939769 -167.13158412 217.82137531 -179.2734375 238.703125 C-179.77343262 239.56131836 -180.27342773 240.41951172 -180.78857422 241.30371094 C-201.29567322 276.58430527 -220.58657336 313.00234075 -236.2734375 350.703125 C-236.71413574 351.75081055 -237.15483398 352.79849609 -237.60888672 353.87792969 C-249.75347921 382.81000313 -260.82522341 412.39012957 -269.48632812 442.5637207 C-270.71911345 446.85733882 -272.02938755 451.1178331 -273.39794922 455.37011719 C-282.09408311 482.40338181 -289.14722408 509.77973724 -293.44970703 537.86401367 C-294.45033259 544.28373246 -295.67584873 550.56410475 -297.23046875 556.8671875 C-299.54449408 566.33149109 -300.97672952 575.87467868 -302.3359375 585.515625 C-302.46350433 586.40343658 -302.59107117 587.29124817 -302.72250366 588.20596313 C-304.94391407 603.6671804 -306.89100583 619.14190695 -308.2734375 634.703125 C-308.40504272 636.12374237 -308.40504272 636.12374237 -308.53930664 637.57305908 C-309.45988318 648.70789044 -309.43743065 659.82239055 -309.44140625 670.98828125 C-309.44462909 673.13756837 -309.44799389 675.28685528 -309.45149231 677.43614197 C-309.45744913 681.9251252 -309.45933584 686.41408928 -309.45874023 690.90307617 C-309.45863894 696.59535085 -309.47227298 702.28749989 -309.48951244 707.97974491 C-309.50074871 712.41644328 -309.5026559 716.85311241 -309.50213051 721.28982353 C-309.5032939 723.38532378 -309.50762074 725.48082521 -309.51546288 727.57631111 C-309.56236101 741.40373082 -308.86888138 754.9660144 -307.2734375 768.703125 C-307.19376425 769.39036557 -307.114091 770.07760614 -307.0320034 770.78567219 C-300.91902948 822.78883014 -285.01985055 875.66558905 -251.2734375 916.703125 C-250.80824707 917.28046387 -250.34305664 917.85780273 -249.86376953 918.45263672 C-233.30250793 938.95363045 -212.54414745 950.99043351 -189.2734375 962.703125 C-203.01653815 976.91540429 -232.046345 976.43692156 -250.68359375 976.88671875 C-262.06534302 977.05506015 -273.05275469 976.72714896 -284.2734375 974.703125 C-285.57152344 974.496875 -286.86960937 974.290625 -288.20703125 974.078125 C-313.94201816 969.8437246 -336.46133638 958.72347102 -355.2734375 940.703125 C-355.99789062 940.04183594 -356.72234375 939.38054688 -357.46875 938.69921875 C-392.0075311 906.07925882 -402.77888862 856.29208719 -405.2734375 810.703125 C-405.40315415 805.60130189 -405.4149999 800.50156414 -405.40625 795.3984375 C-405.40692625 793.98029565 -405.40789893 792.56215391 -405.40914917 791.14401245 C-405.41060818 788.20114008 -405.40852834 785.25829844 -405.40380859 782.31542969 C-405.39808058 778.56347809 -405.40142106 774.81159758 -405.40738106 771.05964851 C-405.41100866 768.14270499 -405.40983854 765.22577812 -405.40725327 762.30883408 C-405.40659171 760.92548489 -405.40738506 759.54213413 -405.40973282 758.15878677 C-405.41890784 751.2439469 -405.30689358 744.54330931 -404.2734375 737.703125 C-404.18370555 735.79283152 -404.09512062 733.88235235 -404.03344727 731.97094727 C-403.68504202 721.67480962 -402.54601095 711.4883409 -401.3359375 701.265625 C-401.20776138 700.1720871 -401.20776138 700.1720871 -401.07699585 699.05645752 C-400.03641016 690.22928338 -398.8153141 681.4584594 -397.2734375 672.703125 C-396.95503859 670.83104926 -396.63666587 668.958969 -396.31886292 667.08679199 C-393.29115429 649.31977181 -389.94226481 631.66238517 -386.01904297 614.06787109 C-385.26712671 610.67464585 -384.53572363 607.27752199 -383.80859375 603.87890625 C-380.68454672 589.37967101 -377.13470611 575.04422111 -373.12939453 560.76318359 C-372.33986737 557.94061274 -371.56904957 555.11356801 -370.80078125 552.28515625 C-362.08438066 520.79502274 -350.94351947 489.80525632 -338.2734375 459.703125 C-337.78810547 458.54006836 -337.30277344 457.37701172 -336.80273438 456.17871094 C-320.12174403 416.27839742 -301.67046451 376.45143984 -279.70605469 339.15380859 C-278.20529296 336.58655463 -276.73957423 334.00173373 -275.28125 331.41015625 C-268.27173309 318.96496594 -260.89122288 306.78447358 -253.2734375 294.703125 C-252.68739746 293.77258301 -252.10135742 292.84204102 -251.49755859 291.88330078 C-244.74218253 281.17222194 -237.90137894 270.52923779 -230.82910156 260.02490234 C-228.90238295 257.14933831 -226.99017719 254.26422962 -225.078125 251.37890625 C-205.95580711 222.53998209 -185.94666674 194.31073943 -164.01635742 167.52197266 C-160.46636905 163.18447359 -156.9738025 158.80772373 -153.5234375 154.390625 C-145.80677879 144.52509311 -137.79930563 134.91635261 -129.68945312 125.37353516 C-128.27025147 123.69936659 -126.85692979 122.02041025 -125.4453125 120.33984375 C-120.49914138 114.45691083 -115.48862399 108.6554846 -110.3203125 102.96484375 C-108.4483406 100.89638625 -106.6048036 98.80751586 -104.7734375 96.703125 C-101.37790069 92.8045457 -97.91669006 88.96742783 -94.44921875 85.1328125 C-92.58859718 83.05506274 -90.77040942 80.95018209 -88.9609375 78.828125 C-85.36034025 74.67814084 -81.46518192 70.8382832 -77.53588867 67.00244141 C-75.34340732 64.84760692 -73.28445809 62.71747256 -71.41015625 60.27734375 C-68.98981945 57.36143525 -66.31884599 55.04440504 -63.4453125 52.5859375 C-59.77952893 49.40804599 -56.28870983 46.04551508 -52.7734375 42.703125 C-47.94646485 38.11354445 -43.07497516 33.60754167 -38.04199219 29.24414062 C-35.87290595 27.35412512 -33.76178417 25.40508883 -31.6484375 23.453125 C-26.52548679 18.82670644 -21.14804277 14.58624958 -15.6875 10.37109375 C-11.80303765 7.36590674 -8.0700096 4.18547761 -4.359375 0.96875 C-2.2734375 -0.296875 -2.2734375 -0.296875 0 0 Z " fill="#DE241C" transform="translate(587.2734375,97.296875)"/>
<path d="M0 0 C0.76976166 0.12206818 1.53952332 0.24413635 2.33261108 0.36990356 C17.33203812 2.79970413 32.12804237 6.50221665 46.3125 12 C47.17738037 12.33322266 48.04226074 12.66644531 48.93334961 13.00976562 C94.71831083 31.1688151 123.97365817 66.32017889 143.61474609 110.44165039 C159.90064536 148.31558257 165.10627625 187.53071284 165.0625 228.375 C165.06123108 229.58479523 165.05996216 230.79459045 165.05865479 232.04104614 C164.99584739 263.40295993 162.10052511 293.42541616 156.875 324.3125 C156.74933655 325.06114319 156.6236731 325.80978638 156.49420166 326.58111572 C152.0022774 353.32038032 146.4139741 379.74286093 138.63330078 405.7409668 C137.74479706 408.7540414 136.895312 411.77728099 136.04296875 414.80078125 C121.75355416 464.8962036 104.0399612 514.21413333 83.625 562.125 C83.32266449 562.83930176 83.02032898 563.55360352 82.70883179 564.28955078 C73.38875323 586.22382113 73.38875323 586.22382113 63.875 593.3125 C63.545 593.3125 63.215 593.3125 62.875 593.3125 C62.40934383 586.90753121 64.07219971 581.88134611 66.1875 575.875 C66.71404175 574.33344238 66.71404175 574.33344238 67.2512207 572.76074219 C68.89500799 567.96166354 70.57175104 563.17426425 72.25292969 558.38818359 C77.58973364 543.1946248 82.87407567 528.14407127 86.3984375 512.40332031 C87.1402591 509.14873005 87.98248369 505.9205474 88.8125 502.6875 C93.80896831 482.57221222 98.15233412 462.45793762 101.5 442 C101.69198975 440.84170685 101.88397949 439.6834137 102.08178711 438.49002075 C105.43864328 418.1703461 108.15180668 397.83669788 109.875 377.3125 C109.95982132 376.37494873 110.04464264 375.43739746 110.1320343 374.47143555 C110.83879924 366.18095622 111.03575135 357.95097524 111.04296875 349.6328125 C111.04619878 348.24917571 111.04956401 346.86553923 111.05305481 345.48190308 C111.05899406 342.59600029 111.06090038 339.7101272 111.06030273 336.82421875 C111.06022192 333.91757932 111.0671013 331.01109899 111.08081055 328.10449219 C111.17941407 306.85807135 110.86930694 285.68064756 107.1875 264.6875 C106.93758301 263.23935913 106.93758301 263.23935913 106.68261719 261.76196289 C97.96587554 213.30103013 80.06501727 167.52067801 45.875 131.3125 C44.7921875 130.13300781 44.7921875 130.13300781 43.6875 128.9296875 C32.81978103 117.51123953 19.63206176 107.94044281 5.875 100.3125 C5.05257813 99.85488281 4.23015625 99.39726563 3.3828125 98.92578125 C-13.53196254 89.60588395 -30.49261159 81.33221138 -49.78979492 78.64477539 C-51.55718599 78.39329403 -53.31978447 78.10782367 -55.0793457 77.80639648 C-66.22070416 76.05363919 -77.26306341 75.97420284 -88.52026367 75.99682617 C-91.78924214 75.99997758 -95.05730508 75.97647765 -98.32617188 75.95117188 C-115.48135309 75.89817627 -132.1482964 77.25838083 -148.625 82.3125 C-149.60509033 82.60664795 -150.58518066 82.9007959 -151.5949707 83.20385742 C-180.91043618 92.28574125 -207.94229003 105.47821711 -234.125 121.3125 C-234.88151855 121.76625 -235.63803711 122.22 -236.41748047 122.6875 C-252.29165798 132.23363447 -267.469179 142.99394414 -282.125 154.3125 C-282.66785645 154.73063965 -283.21071289 155.1487793 -283.77001953 155.57958984 C-296.21089738 165.18264425 -308.14282862 175.26204782 -319.65869141 185.95507812 C-322.05206978 188.17072643 -324.46552672 190.36438402 -326.875 192.5625 C-332.95389132 198.126197 -338.96308107 203.76349371 -344.96484375 209.41015625 C-347.7358814 212.01546666 -350.52024101 214.60527763 -353.31640625 217.18359375 C-364.87755096 227.86924487 -375.22558815 239.04876261 -385.125 251.3125 C-387.08873987 253.6855246 -389.07811206 256.00975106 -391.125 258.3125 C-391.455 258.3125 -391.785 258.3125 -392.125 258.3125 C-393.09093038 238.77655816 -370.26755959 215.33857303 -358.76318359 200.43798828 C-356.17676001 197.0821904 -353.61479283 193.70781886 -351.04907227 190.33618164 C-348.97784448 187.61549499 -346.90303 184.89757017 -344.828125 182.1796875 C-341.92191836 178.36766923 -339.04594663 174.53540892 -336.1875 170.6875 C-325.64120434 156.59924089 -313.96737632 143.31944303 -302.125 130.3125 C-301.32932617 129.43198975 -300.53365234 128.55147949 -299.71386719 127.64428711 C-293.46823162 120.76928725 -287.06191304 114.09185987 -280.48071289 107.5378418 C-278.92410611 105.98665273 -277.37299829 104.43010608 -275.82226562 102.87304688 C-270.42950342 97.4763244 -264.95660001 92.23792029 -259.125 87.3125 C-258.0686833 86.40011817 -257.01267714 85.48737664 -255.95703125 84.57421875 C-248.52789347 78.24071061 -240.95059918 72.15084464 -233.125 66.3125 C-232.46935059 65.82023926 -231.81370117 65.32797852 -231.13818359 64.82080078 C-194.26740707 37.24719979 -152.27880134 15.12147291 -107.21386719 4.80322266 C-104.4987661 4.16538334 -101.81527369 3.42223861 -99.125 2.6875 C-93.93879747 1.40009288 -88.71338687 0.51223403 -83.4375 -0.3125 C-82.67244141 -0.4357666 -81.90738281 -0.5590332 -81.11914062 -0.68603516 C-54.55317682 -4.62516392 -26.44921982 -4.2600921 0 0 Z " fill="#DE261D" transform="translate(866.125,11.6875)"/>
<path d="M0 0 C0.66 0 1.32 0 2 0 C2.14061792 17.0991682 2.24618885 34.19815407 2.31087303 51.29776955 C2.34171518 59.23874958 2.38370894 67.17936884 2.45263672 75.12011719 C2.51273664 82.04720679 2.55121909 88.97403492 2.56453097 95.90137804 C2.57230362 99.56415549 2.59036386 103.22618539 2.63438034 106.88872147 C2.68330267 110.99336107 2.6839205 115.09672937 2.68115234 119.20166016 C2.71350983 120.9916317 2.71350983 120.9916317 2.746521 122.81776428 C2.64480723 136.85556823 -3.63049731 147.15520322 -12 158 C-13.55884294 160.14891639 -15.1000991 162.30987804 -16.64135742 164.47143555 C-22.85674632 173.17842812 -29.29753608 181.66387605 -36 190 C-36.75796875 190.95261719 -37.5159375 191.90523437 -38.296875 192.88671875 C-43.12428395 198.886743 -48.20891657 204.58658901 -53.4453125 210.2265625 C-55.51251241 212.47077035 -57.5203508 214.74185859 -59.5 217.0625 C-62.79642257 220.8739886 -66.36390593 224.39553579 -69.95092773 227.92944336 C-72.61565601 230.56851841 -75.14633466 233.25758865 -77.5625 236.125 C-80.84154249 239.95572973 -84.47996887 243.24972602 -88.26171875 246.578125 C-90.69895996 248.7337449 -93.08967971 250.92755912 -95.47167969 253.14331055 C-100.28639125 257.61422401 -105.21199907 261.86567631 -110.38671875 265.91796875 C-113.39833111 268.31735498 -116.32421817 270.8101751 -119.25 273.3125 C-126.0182928 279.07199015 -132.954388 284.58448255 -140 290 C-140.74137207 290.57266602 -141.48274414 291.14533203 -142.24658203 291.73535156 C-176.27359142 317.94430858 -213.97145787 339.34931067 -252.10546875 358.95703125 C-256.68965508 361.31429359 -261.24354866 363.72249052 -265.78759766 366.15600586 C-274.02623794 370.55525539 -282.29817156 374.57740584 -291 378 C-291.68964844 378.27408691 -292.37929688 378.54817383 -293.08984375 378.83056641 C-305.04284515 383.54401929 -317.15097949 387.11318073 -329.57617188 390.35205078 C-332.76093233 391.20341604 -335.90908087 392.1647764 -339.0625 393.125 C-344.86182524 394.79291664 -350.70575283 396.03617218 -356.625 397.1875 C-357.47199463 397.35459473 -358.31898926 397.52168945 -359.19165039 397.69384766 C-412.27641805 407.62263691 -471.06482821 394.56030394 -516 365 C-525.96777151 358.10554139 -535.69633822 350.76793258 -545 343 C-545.62003906 342.49082031 -546.24007812 341.98164062 -546.87890625 341.45703125 C-551.60020327 337.46512041 -556.05632834 333.17084567 -560.5 328.875 C-561.13647461 328.27671387 -561.77294922 327.67842773 -562.42871094 327.06201172 C-566.90781944 322.66476362 -566.90781944 322.66476362 -567.40625 319.0703125 C-567.2721875 318.38710937 -567.138125 317.70390625 -567 317 C-563.95936757 317.61520066 -561.79226979 318.59083114 -559.20703125 320.29296875 C-558.49933594 320.75541992 -557.79164063 321.21787109 -557.0625 321.69433594 C-555.94875 322.43345215 -555.94875 322.43345215 -554.8125 323.1875 C-554.04292969 323.68926758 -553.27335938 324.19103516 -552.48046875 324.70800781 C-548.75611685 327.14303959 -545.10463834 329.6407253 -541.5 332.25 C-519.20448202 347.11367865 -489.10273775 349.55227588 -463.13696289 349.39111328 C-460.06806905 349.37502919 -457.00049507 349.3910692 -453.93164062 349.41015625 C-428.28815686 349.44145977 -404.4942515 344.51767653 -380.3125 336.3125 C-379.52974701 336.04888672 -378.74699402 335.78527344 -377.94052124 335.51367188 C-356.19802442 328.17881374 -335.54215579 319.22866239 -315 309 C-313.55173828 308.28287842 -313.55173828 308.28287842 -312.07421875 307.55126953 C-274.57522833 288.87230936 -239.94569892 264.52298609 -207.09130859 238.64599609 C-205.11269362 237.08869722 -203.12958832 235.53735583 -201.14453125 233.98828125 C-195.02926371 229.210985 -188.96868046 224.37687861 -182.9765625 219.4453125 C-179.3293827 216.44907293 -175.66485662 213.47456854 -172 210.5 C-170.621066 209.37894038 -169.24215927 208.25784722 -167.86328125 207.13671875 C-165.55257791 205.25867216 -163.23768658 203.3864778 -160.91796875 201.51953125 C-155.28628353 196.96745378 -149.87736016 192.23336718 -144.546875 187.33203125 C-142.41058251 185.37594748 -140.25219343 183.45812303 -138.0625 181.5625 C-129.65023179 174.22741248 -121.51427601 166.66482601 -113.71606445 158.67919922 C-110.94461807 155.86079433 -108.10637057 153.18866594 -105.11328125 150.60546875 C-100.86974053 146.93475036 -96.89219155 143.04020624 -92.9375 139.0625 C-92.26912109 138.39798828 -91.60074219 137.73347656 -90.91210938 137.04882812 C-86.97060922 133.09966714 -83.21871446 129.03975493 -79.57446289 124.81518555 C-77.52211099 122.44904562 -75.38597219 120.16564604 -73.25 117.875 C-68.01607772 112.12872087 -63.24562447 106.09166465 -58.50683594 99.93505859 C-56.95662574 97.94429935 -55.37667526 95.9805604 -53.7890625 94.01953125 C-39.14592741 75.79941474 -26.69788951 56.01375971 -15.42919922 35.55859375 C-13.91657136 32.85064364 -12.35518373 30.17503631 -10.78515625 27.5 C-9.75219338 25.70857013 -8.71962763 23.91691122 -7.6875 22.125 C-7.20039551 21.31047363 -6.71329102 20.49594727 -6.21142578 19.65673828 C-3.32973505 14.57421334 -2.72689761 11.88992771 -4 6 C-2.1875 2.5625 -2.1875 2.5625 0 0 Z " fill="#DE241B" transform="translate(790,737)"/>
<path d="M0 0 C142.28571429 0 142.28571429 0 156 7 C156.763125 7.38800781 157.52625 7.77601563 158.3125 8.17578125 C176.97709576 18.52879921 188.87600449 35.91482408 195.4375 55.8125 C197.03701548 61.55525381 197.81801359 67.04983571 198 73 C198.03996094 74.175625 198.07992187 75.35125 198.12109375 76.5625 C198.51171362 98.98867594 192.33167536 118.63633753 176.94897461 135.16674805 C168.39561613 143.95744625 158.43700124 150.55890362 147 155 C145.95794907 155.42576828 144.91589813 155.85153656 143.8422699 156.29020691 C133.41683923 160.20498043 124.09047468 160.66418211 113.03515625 160.48828125 C111.46188244 160.48090454 109.88859623 160.47581928 108.31530762 160.47302246 C102.56418125 160.44710071 96.81331976 160.37729635 91.0625 160.3125 C71.7265625 160.1578125 71.7265625 160.1578125 52 160 C52 192.01 52 224.02 52 257 C34.84 257 17.68 257 0 257 C0 172.19 0 87.38 0 0 Z " fill="#DE261E" transform="translate(348,620)"/>
<path d="M0 0 C58.12519628 -0.09043523 116.25037813 -0.16205183 174.37563051 -0.20426132 C181.23862034 -0.20925052 188.10161001 -0.21443676 194.96459961 -0.21972656 C195.6475377 -0.2202496 196.33047578 -0.22077263 197.03410896 -0.22131152 C219.15709246 -0.23834697 241.280035 -0.26838478 263.4029937 -0.30518888 C286.78858096 -0.34402272 310.17413406 -0.36799088 333.5597561 -0.37635398 C347.56482128 -0.38184105 361.56976886 -0.39916858 375.57479785 -0.43166587 C385.17996044 -0.4528177 394.78506228 -0.4591985 404.39024647 -0.45400551 C409.9310417 -0.45144481 415.47163148 -0.45535671 421.01239014 -0.4768219 C426.09012296 -0.49634925 431.16751303 -0.49722984 436.24526194 -0.48359558 C438.07725116 -0.48191155 439.90926215 -0.48693308 441.74120881 -0.49953273 C454.97629446 -0.58522957 466.90720556 0.31008568 478 8.375 C479.03125 9.10460938 480.0625 9.83421875 481.125 10.5859375 C486.10691334 14.76912017 489.25992224 18.59783627 491 25 C491.24291992 28.14599609 491.24291992 28.14599609 491.23046875 31.5234375 C491.22853516 33.41050415 491.22853516 33.41050415 491.2265625 35.33569336 C491.21406482 36.68213386 491.20103338 38.02856951 491.1875 39.375 C491.18063139 40.75593902 491.17412436 42.13687988 491.16796875 43.51782227 C491.09082842 55.69029999 490.65205838 67.84500741 490 80 C486.64878581 78.39023295 483.9385141 76.47446857 481 74.1875 C470.41124765 66.40165268 460.10714545 63.95326666 447.1966362 63.69081211 C446.34732648 63.67055213 445.49801675 63.65029214 444.62297037 63.62941822 C441.82822094 63.5647204 439.03338708 63.50701945 436.23846436 63.45033264 C435.26602235 63.42944767 434.29358035 63.4085627 433.29167041 63.38704485 C412.88175331 62.95140454 392.4753519 62.82860099 372.06140089 62.79939139 C367.03689769 62.7911588 362.01240812 62.77754538 356.98791504 62.76467896 C348.3410003 62.74322941 339.69408395 62.72497511 331.04715729 62.70907402 C318.54610665 62.68608056 306.04507128 62.65798375 293.54403386 62.62875474 C273.24778722 62.58143306 252.95153423 62.53807637 232.65527344 62.49731445 C212.97297677 62.45777687 193.29068567 62.41630891 173.60839844 62.37231445 C172.38931609 62.36959018 171.17023375 62.36686591 169.91420951 62.36405908 C163.79668 62.35037662 157.67915058 62.33665694 151.56162119 62.32291877 C101.04109242 62.20951249 50.5205513 62.10283435 0 62 C0 41.54 0 21.08 0 0 Z " fill="#DE251C" transform="translate(139,1191)"/>
<path d="M0 0 C1.50746864 -0.00234211 1.50746864 -0.00234211 3.0453912 -0.00473154 C6.42105329 -0.00872794 9.79667033 -0.00556005 13.17233276 -0.00241089 C15.60367229 -0.00374606 18.03501161 -0.00550443 20.46635056 -0.00765228 C26.42824206 -0.01171078 32.39011635 -0.01103313 38.35200718 -0.00818305 C43.2683349 -0.00596387 48.18465851 -0.00592027 53.10098648 -0.00733566 C53.80707265 -0.0075379 54.51315882 -0.00774014 55.24064154 -0.00794851 C56.67855814 -0.00836907 58.11647474 -0.00879373 59.55439134 -0.00922243 C74.00301735 -0.01323661 88.45163575 -0.00973278 102.90026057 -0.0035814 C113.15167307 0.00075461 123.40308421 0.00330318 133.65449756 0.00440702 C221.10475945 0.01412182 308.55177424 0.20407374 396.00045776 0.77102661 C396.82278389 0.7763554 397.64511001 0.78168419 398.49235511 0.78717446 C414.3322107 0.89047605 430.1719193 1.01020809 446.01168823 1.12698364 C446.01168823 20.92698364 446.01168823 40.72698364 446.01168823 61.12698364 C439.3803479 61.15203979 432.74900757 61.17709595 425.91671753 61.20291138 C417.74091754 61.2339232 409.56511787 61.26501874 401.38931823 61.29612017 C397.57590923 61.3106154 393.7625001 61.32507788 389.94909096 61.33953476 C360.4499539 61.45144867 330.95083267 61.56627872 301.45174098 61.68961704 C290.50593617 61.73537663 279.56012972 61.78074352 268.61432319 61.82608896 C264.92719271 61.84136587 261.24006236 61.85667157 257.55293226 61.87203908 C221.33040266 62.02295239 185.10800983 62.1534505 148.88524336 62.23327667 C147.64949412 62.23600072 146.41374489 62.23872477 145.14054871 62.24153137 C143.9143414 62.24422852 142.68813409 62.24692566 141.42476898 62.24970454 C126.09541264 62.28412253 110.76609519 62.33189794 95.43678188 62.38166523 C83.32497247 62.4203301 71.21325494 62.44677827 59.10138839 62.45777893 C50.87715661 62.46627984 42.65304214 62.48898096 34.42887646 62.52296925 C29.73735872 62.54189163 25.04605999 62.55449023 20.35450172 62.54931259 C16.08793906 62.54467331 11.8218349 62.55841654 7.5553652 62.58641732 C6.02606391 62.59327354 4.49671439 62.5935665 2.96741521 62.58625209 C-11.23006026 62.52499807 -26.24231411 64.56319427 -36.86331177 74.96292114 C-39.14700014 77.56500838 -41.06659441 80.24440761 -42.98831177 83.12698364 C-43.97831177 83.12698364 -44.96831177 83.12698364 -45.98831177 83.12698364 C-46.43194221 74.79711421 -46.73686724 66.46467211 -46.98831177 58.12698364 C-47.01189758 57.3839801 -47.0354834 56.64097656 -47.05978394 55.87545776 C-47.20895142 51.07211427 -47.31836023 46.2699581 -47.38528442 41.4647522 C-47.41214419 39.87395847 -47.44961664 38.28330595 -47.49807739 36.69302368 C-47.91829803 22.38976385 -47.91829803 22.38976385 -44.37893677 17.33010864 C-41.36711522 14.13696451 -38.16306314 12.00492936 -34.30081177 9.93948364 C-33.39105591 9.44822998 -33.39105591 9.44822998 -32.46292114 8.947052 C-30.65011131 7.98096513 -28.82445387 7.0478375 -26.98831177 6.12698364 C-25.95061646 5.60620239 -24.91292114 5.08542114 -23.84378052 4.54885864 C-15.77027959 0.70538624 -8.84925907 -0.02114226 0 0 Z " fill="#DE241B" transform="translate(684.9883117675781,1190.8730163574219)"/>
<path d="M0 0 C1.90623051 -0.00131075 3.81246048 -0.00394211 5.71868759 -0.0077675 C10.91819018 -0.0144315 16.11750511 -0.00253646 21.31698382 0.01256669 C26.93844923 0.02558214 32.55990497 0.02113371 38.18138123 0.01885986 C47.90816165 0.0172906 57.63488147 0.02666346 67.36164665 0.04357338 C81.42472235 0.06800596 95.48776889 0.07577301 109.55086351 0.07953735 C132.37003391 0.08609516 155.1891649 0.10601223 178.00831604 0.13444519 C200.16847059 0.16202504 222.3286165 0.18326285 244.48878479 0.19596863 C245.51448295 0.1965605 245.51448295 0.1965605 246.56090228 0.19716432 C253.42826848 0.20112009 260.29563475 0.2049475 267.16300108 0.2086809 C324.69894565 0.23997197 382.23485461 0.29310775 439.77076721 0.36076355 C439.77076721 7.62076355 439.77076721 14.88076355 439.77076721 22.36076355 C421.35116045 22.47716591 402.93153048 22.58904588 384.51187229 22.69698715 C382.63243165 22.70800732 380.75299102 22.71903055 378.87355042 22.73005676 C377.92898827 22.73559806 376.98442613 22.74113936 376.0112409 22.74684858 C369.26709513 22.78654673 362.52295853 22.82762129 355.77882385 22.86915588 C303.89607802 23.18763168 252.01404763 23.39513303 200.13046283 23.48348445 C188.90350617 23.50272588 177.67656072 23.5255392 166.44961548 23.55053711 C164.84561207 23.55408561 163.24160866 23.55763314 161.63760525 23.5611797 C155.22003089 23.57540783 148.80245674 23.58971965 142.38488352 23.60445845 C123.96928084 23.6466611 105.55373871 23.67886101 87.13808952 23.69006705 C74.11240394 23.69822628 61.08680296 23.72060742 48.06116456 23.75674915 C40.21173731 23.77802524 32.36248344 23.78771319 24.51302896 23.78142152 C18.58814985 23.77787732 12.66344683 23.7951295 6.73861587 23.82019722 C4.3324188 23.82711124 1.92619094 23.82728283 -0.48000515 23.820032 C-20.49543405 23.27770001 -20.49543405 23.27770001 -37.79173279 32.11076355 C-44.33238431 36.99770091 -52.2531996 36.78879353 -60.09153748 35.83927917 C-64.3019109 34.8968018 -66.97430804 32.50296451 -69.83079529 29.4037323 C-77.25496073 23.07989106 -87.16773527 23.93115093 -96.38014221 23.96876526 C-97.91808282 23.9640367 -99.45601986 23.95799518 -100.99395072 23.95076144 C-105.2067158 23.93470916 -109.41929582 23.93716033 -113.63208032 23.94268274 C-118.1858 23.9453703 -122.73946842 23.93075726 -127.29316711 23.91824341 C-135.19787028 23.89884644 -143.10252574 23.89028023 -151.00725174 23.88894272 C-162.53077602 23.88689072 -174.05422096 23.86732823 -185.57771848 23.8435448 C-204.400513 23.80508841 -223.22330214 23.77933113 -242.04612732 23.76213074 C-260.11189083 23.7455832 -278.17764154 23.72548996 -296.24339294 23.69865417 C-297.34481865 23.69702075 -298.44624435 23.69538733 -299.5810466 23.69370441 C-311.72549056 23.6755641 -323.86993199 23.65608939 -336.01437187 23.63540077 C-337.63915042 23.63263864 -337.63915042 23.63263864 -339.29675277 23.62982071 C-343.64151412 23.62242475 -347.98627546 23.61502617 -352.33103655 23.6074769 C-364.82892302 23.58580962 -377.32679967 23.56800831 -389.82470065 23.55745725 C-444.6322491 23.51085418 -499.42662832 23.10459958 -554.22923279 22.36076355 C-554.22923279 15.76076355 -554.22923279 9.16076355 -554.22923279 2.36076355 C-508.78872347 2.24127681 -463.34820116 2.12944007 -417.90757751 2.06436157 C-416.89799446 2.06291197 -416.89799446 2.06291197 -415.86801579 2.06143309 C-401.23900268 2.04048037 -386.60998789 2.02108943 -371.98097059 2.00330624 C-364.80640007 1.99457526 -357.63183 1.98549933 -350.45726013 1.97624207 C-349.74332263 1.97532675 -349.02938512 1.97441144 -348.29381315 1.97346839 C-325.17321863 1.94366476 -302.05274424 1.89110499 -278.93222243 1.826683 C-255.16324979 1.76057485 -231.39434357 1.71754694 -207.62528054 1.70335862 C-204.26433684 1.70134168 -200.90339337 1.69906223 -197.54244995 1.69662285 C-196.88099964 1.69615089 -196.21954933 1.69567893 -195.53805507 1.69519266 C-184.25630812 1.68642734 -172.97483793 1.64920978 -161.69318008 1.60534828 C-151.6520568 1.5683021 -141.61111147 1.55717299 -131.56992483 1.56625391 C-125.77949422 1.57073052 -119.98966583 1.56394395 -114.19934273 1.52632523 C-108.88994043 1.49208412 -103.58154128 1.49065313 -98.27209133 1.51447129 C-96.35928217 1.51741189 -94.4464086 1.50868049 -92.53372484 1.48658127 C-79.81985552 1.34831932 -70.47180887 3.34396222 -59.22923279 9.36076355 C-56.0204075 10.9651762 -52.71660485 10.75141895 -49.22923279 10.36076355 C-46.71683907 9.34747769 -44.5148828 8.34352499 -42.16673279 7.04826355 C-28.96326344 -0.03616264 -14.6053909 -0.07543009 0 0 Z " fill="#DE2F26" transform="translate(691.2292327880859,1156.6392364501953)"/>
<path d="M0 0 C59.73 0 119.46 0 181 0 C181 13.86 181 27.72 181 42 C158.89 42 136.78 42 114 42 C114 113.28 114 184.56 114 258 C98.49 258 82.98 258 67 258 C67 187.71 67 117.42 67 45 C44.89 45 22.78 45 0 45 C0 30.15 0 15.3 0 0 Z " fill="#DE281F" transform="translate(551,621)"/>
<path d="M0 0 C59.73 0 119.46 0 181 0 C181 15.18 181 30.36 181 46 C158.89 46 136.78 46 114 46 C114 116.95 114 187.9 114 261 C99.15 261 84.3 261 69 261 C69 189.72 69 118.44 69 45 C46.23 45 23.46 45 0 45 C0 30.15 0 15.3 0 0 Z " fill="#DD261D" transform="translate(933,616)"/>
<path d="M0 0 C0.66 0 1.32 0 2 0 C2.25118238 21.01280196 -0.95874998 41.72499818 -3.93783569 62.46960449 C-4.13876328 63.86910339 -4.13876328 63.86910339 -4.34375 65.296875 C-4.54697372 66.71135925 -4.54697372 66.71135925 -4.75430298 68.15441895 C-5.77555776 75.30975713 -6.72912106 82.47252943 -7.65625 89.640625 C-7.79065491 90.67451859 -7.92505981 91.70841217 -8.0635376 92.77363586 C-8.58954977 96.82281628 -9.11533055 100.87196226 -9.62731934 104.92294312 C-9.97965838 107.70859076 -10.34061513 110.49300433 -10.703125 113.27734375 C-10.80500122 114.1044989 -10.90687744 114.93165405 -11.01184082 115.78387451 C-11.53216347 119.72371273 -12.19634462 122.39268925 -14 126 C4.15 126.33 22.3 126.66 41 127 C37.97204704 136.08385889 32.1446875 139.48657632 24.4921875 144.5859375 C23.57092072 145.20594635 22.64965393 145.8259552 21.70046997 146.4647522 C18.76214446 148.44010256 15.81857018 150.40747603 12.875 152.375 C10.91894491 153.68961934 8.96321246 155.00471889 7.0078125 156.3203125 C5.10706133 157.59678684 3.20602843 158.87284179 1.3046875 160.1484375 C0.4365744 160.73096283 -0.4315387 161.31348816 -1.32595825 161.91366577 C-3.01584882 163.04290123 -4.70893063 164.16737718 -6.40533447 165.2868042 C-8.2367706 166.49605782 -10.06006288 167.71768931 -11.87738037 168.94805908 C-12.83162903 169.58088806 -13.78587769 170.21371704 -14.76904297 170.86572266 C-15.62738739 171.44198395 -16.48573181 172.01824524 -17.37008667 172.61196899 C-20 174 -20 174 -26 175 C-26 203.05 -26 231.1 -26 260 C-33.63040574 253.45965222 -40.64263758 246.72003117 -47.18359375 239.1015625 C-50.02240918 235.81708358 -52.94574192 232.61042155 -55.87890625 229.41015625 C-58 227 -58 227 -59.58984375 224.80859375 C-62.17243249 221.24647245 -62.17243249 221.24647245 -66.05078125 219.43359375 C-76.30588751 218.88452934 -85.78425927 226.00135488 -94.25 230.9375 C-95.10087189 231.4312915 -95.10087189 231.4312915 -95.96893311 231.93505859 C-106.18152365 237.86234926 -116.25762656 243.99621716 -126.25634766 250.27734375 C-129.28616301 252.17967309 -132.32048437 254.07467888 -135.35546875 255.96875 C-139.47400524 258.53951689 -143.59143929 261.11202169 -147.70703125 263.6875 C-148.6088916 264.24993408 -149.51075195 264.81236816 -150.43994141 265.3918457 C-152.09008731 266.42841933 -153.73359259 267.47567831 -155.36865234 268.53588867 C-156.07586426 268.9919751 -156.78307617 269.44806152 -157.51171875 269.91796875 C-158.42183716 270.51387817 -158.42183716 270.51387817 -159.3503418 271.12182617 C-161.61948625 272.32977535 -163.48687224 272.39267621 -166 272 C-165.41612391 266.80767331 -162.93553365 262.65071694 -160.5 258.125 C-160.04786133 257.27711914 -159.59572266 256.42923828 -159.12988281 255.55566406 C-155.40737377 248.63424593 -151.46161537 241.87971964 -147.34130859 235.18945312 C-145.77274955 232.62905314 -144.2240481 230.05709518 -142.67578125 227.484375 C-136.0347272 216.47127103 -129.20661443 205.64934645 -122 195 C-120.65645867 192.98593897 -119.32221731 190.96562389 -118 188.9375 C-117.46375 188.12152344 -116.9275 187.30554688 -116.375 186.46484375 C-113.56252521 181.42316309 -112.24680134 176.74313975 -113 171 C-113.81911495 169.31210018 -114.70707743 167.6569824 -115.63671875 166.02734375 C-119.00737251 160.00460968 -122.19194309 153.90561911 -125.3125 147.75 C-125.84939453 146.71359375 -126.38628906 145.6771875 -126.93945312 144.609375 C-129.60018501 139.34830615 -131.69041954 134.923864 -132 129 C-129.66893499 127.8344675 -128.3955461 127.90152834 -125.80419922 127.94995117 C-124.50045853 127.96943062 -124.50045853 127.96943062 -123.17037964 127.98930359 C-122.22470123 128.00701309 -121.27902283 128.0247226 -120.3046875 128.04296875 C-118.28777072 128.06539966 -116.27084285 128.08685027 -114.25390625 128.10742188 C-111.08579082 128.14415858 -107.91825066 128.18667878 -104.75048828 128.24682617 C-84.07409512 129.34599145 -84.07409512 129.34599145 -65.5090332 121.9519043 C-63.36459342 119.41370645 -61.67641316 116.86686608 -60 114 C-59.45859375 113.13342773 -58.9171875 112.26685547 -58.359375 111.37402344 C-53.96059207 104.10010143 -50.54090908 96.62347318 -47.37503052 88.76278687 C-45.98219198 85.31247077 -44.55379577 81.87695632 -43.125 78.44140625 C-42.71073509 77.44443474 -42.71073509 77.44443474 -42.2881012 76.42732239 C-39.21742302 69.07165318 -35.76120879 62.020405 -32 55 C-30.9530177 53.01437949 -29.90615361 51.02869665 -28.859375 49.04296875 C-23.0970192 38.17538206 -17.18371714 27.41022736 -10.9375 16.8125 C-10.41389893 15.92288574 -9.89029785 15.03327148 -9.35083008 14.11669922 C-6.44458103 9.24148874 -3.49569161 4.47715096 0 0 Z " fill="#ECEB0A" transform="translate(883,489)"/>
<path d="M0 0 C0.66 0 1.32 0 2 0 C2 0.66 2 1.32 2 2 C2.53238281 2.22300781 3.06476562 2.44601562 3.61328125 2.67578125 C6.81386683 4.45155623 9.44199834 6.79456166 12.1875 9.1875 C15.95517839 12.42927218 19.72651271 15.61889358 23.6875 18.625 C37.2636234 29.07389937 52.20870992 42.11665776 55 60 C55.24165842 65.47447698 55.19297686 70.95813518 55.1875 76.4375 C55.18789276 77.26271149 55.18828552 78.08792297 55.18869019 78.93814087 C55.17951809 95.36575963 54.66783141 111.7723526 54.0625 128.1875 C54.01902435 129.39332733 53.97554871 130.59915466 53.93075562 131.84152222 C53.80460703 135.28392015 53.67148508 138.72596037 53.53515625 142.16796875 C53.49655487 143.20483826 53.45795349 144.24170776 53.41818237 145.30999756 C53.37823151 146.26626038 53.33828064 147.22252319 53.29711914 148.20776367 C53.26380997 149.04055344 53.23050079 149.8733432 53.19618225 150.73136902 C53 153 53 153 52 157 C35 159 35 159 0 159 C0 106.53 0 54.06 0 0 Z " fill="#DE251C" transform="translate(805,720)"/>
<path d="M0 0 C8.04375 -0.020625 16.0875 -0.04125 24.375 -0.0625 C26.89431152 -0.071604 29.41362305 -0.08070801 32.00927734 -0.09008789 C34.03483019 -0.09301202 36.06038363 -0.0955594 38.0859375 -0.09765625 C39.11436768 -0.10277222 40.14279785 -0.10788818 41.20239258 -0.11315918 C50.68597721 -0.11428952 59.38055819 0.28049896 68.25 3.8125 C68.91773438 4.06064453 69.58546875 4.30878906 70.2734375 4.56445312 C80.37530705 8.45664404 86.50035091 14.95449425 90.9375 24.8125 C93.63431486 33.17262607 92.71584177 42.28825434 89.390625 50.296875 C83.58506642 61.58183718 77.31010363 67.41613584 65.375 71.25 C59.38887245 73.01829918 53.70680531 74.12848518 47.45361328 74.11352539 C46.37829346 74.11340454 45.30297363 74.11328369 44.19506836 74.11315918 C43.08139893 74.10804321 41.96772949 74.10292725 40.8203125 74.09765625 C39.78447021 74.09664917 38.74862793 74.09564209 37.68139648 74.09460449 C33.82925299 74.0893909 29.97712533 74.07542967 26.125 74.0625 C13.193125 74.0315625 13.193125 74.0315625 0 74 C0 49.58 0 25.16 0 0 Z " fill="#FCF8F8" transform="translate(400,663)"/>
<path d="M0 0 C0.66 0 1.32 0 2 0 C2.25118238 21.01280196 -0.95874998 41.72499818 -3.93783569 62.46960449 C-4.07178741 63.40260376 -4.20573914 64.33560303 -4.34375 65.296875 C-4.54697372 66.71135925 -4.54697372 66.71135925 -4.75430298 68.15441895 C-5.77555776 75.30975713 -6.72912106 82.47252943 -7.65625 89.640625 C-7.79065491 90.67451859 -7.92505981 91.70841217 -8.0635376 92.77363586 C-8.58954977 96.82281628 -9.11533055 100.87196226 -9.62731934 104.92294312 C-9.97965838 107.70859076 -10.34061513 110.49300433 -10.703125 113.27734375 C-10.80500122 114.1044989 -10.90687744 114.93165405 -11.01184082 115.78387451 C-11.53216347 119.72371273 -12.19634462 122.39268925 -14 126 C4.15 126.33 22.3 126.66 41 127 C37.97204704 136.08385889 32.1446875 139.48657632 24.4921875 144.5859375 C23.57092072 145.20594635 22.64965393 145.8259552 21.70046997 146.4647522 C18.76214446 148.44010256 15.81857018 150.40747603 12.875 152.375 C10.91894491 153.68961934 8.96321246 155.00471889 7.0078125 156.3203125 C5.10706133 157.59678684 3.20602843 158.87284179 1.3046875 160.1484375 C0.4365744 160.73096283 -0.4315387 161.31348816 -1.32595825 161.91366577 C-23.2206415 176.54434845 -23.2206415 176.54434845 -32.90380859 175.48974609 C-40.1364395 173.79994204 -46.79581014 168.9385031 -53 165 C-53 164.01 -53 163.02 -53 162 C-48.35713741 157.90347105 -42.45967003 155.85336616 -36.62890625 154.08984375 C-35.84080063 153.84059143 -35.05269501 153.59133911 -34.2407074 153.33453369 C-32.55552572 152.80204038 -30.86887977 152.27416212 -29.1809082 151.75057983 C-24.71785869 150.36469372 -20.26684183 148.9414163 -15.81640625 147.515625 C-14.91483795 147.22717209 -14.01326965 146.93871918 -13.0843811 146.64152527 C-3.97684363 143.70703073 5.02118582 140.49226964 14 137.1875 C14.71912567 136.92307098 15.43825134 136.65864197 16.1791687 136.38619995 C20.1231017 134.9338727 24.06330155 133.47184678 28 132 C23.02368913 131.87435511 18.04834421 131.78472268 13.07080078 131.7253418 C11.38541543 131.70053318 9.70013362 131.66667424 8.01513672 131.62280273 C-3.96997953 131.31906544 -13.81403903 132.64559269 -25 137 C-25.97179199 137.37793701 -26.94358398 137.75587402 -27.94482422 138.14526367 C-30.38094375 139.13715485 -32.78642687 140.17643334 -35.1875 141.25 C-44.54805758 145.39332248 -44.54805758 145.39332248 -49 146 C-47.99963886 135.59624414 -45.06578047 125.63115102 -41.75 115.75 C-41.41846924 114.75750244 -41.08693848 113.76500488 -40.74536133 112.74243164 C-36.69110952 100.81195566 -32.19302966 89.04407827 -27.72631836 77.26342773 C-24.63861428 69.10852457 -21.59145528 60.94716087 -18.7265625 52.7109375 C-18.4750795 51.98973221 -18.2235965 51.26852692 -17.9644928 50.52546692 C-16.79530693 47.16489763 -15.63900276 43.80060533 -14.50073242 40.42944336 C-14.09443604 39.25260986 -13.68813965 38.07577637 -13.26953125 36.86328125 C-12.92510986 35.84532471 -12.58068848 34.82736816 -12.22583008 33.77856445 C-10.87931209 30.72643913 -9.11803841 28.55957686 -7 26 C-5.98511927 22.95535782 -5.79816054 20.56610145 -5.625 17.375 C-5.15616198 11.2428964 -4.51990721 4.51990721 0 0 Z " fill="#BBA114" transform="translate(883,489)"/>
<path d="M0 0 C4.13392939 8.78675446 8.00576884 17.63904837 11.6875 26.625 C12.20298466 27.88161598 12.71852955 29.13820727 13.23413086 30.39477539 C14.02858403 32.33114284 14.82273214 34.26763046 15.61555481 36.20466614 C17.4221868 40.61311985 19.26276284 45.00596081 21.1171875 49.39453125 C22.09905927 51.74214529 23.08083407 54.08979988 24.0625 56.4375 C24.74155396 58.02328857 24.74155396 58.02328857 25.43432617 59.64111328 C28.62333034 67.32687318 30.49385958 74.8217413 32 83 C28.09361716 81.10779907 25.07610646 79.45353168 22.0625 76.3125 C21.381875 75.60480469 20.70125 74.89710938 20 74.16796875 C17.56780086 71.53150289 15.19116709 68.85557431 12.8515625 66.13671875 C9.99775146 62.84339673 7.06542369 59.62260393 4.12109375 56.41015625 C2 54 2 54 0.41015625 51.80859375 C-2.17243249 48.24647245 -2.17243249 48.24647245 -6.05078125 46.43359375 C-16.30588751 45.88452934 -25.78425927 53.00135488 -34.25 57.9375 C-35.10087189 58.4312915 -35.10087189 58.4312915 -35.96893311 58.93505859 C-46.18152365 64.86234926 -56.25762656 70.99621716 -66.25634766 77.27734375 C-69.28616301 79.17967309 -72.32048437 81.07467888 -75.35546875 82.96875 C-79.47400524 85.53951689 -83.59143929 88.11202169 -87.70703125 90.6875 C-88.6088916 91.24993408 -89.51075195 91.81236816 -90.43994141 92.3918457 C-92.09008731 93.42841933 -93.73359259 94.47567831 -95.36865234 95.53588867 C-96.07586426 95.9919751 -96.78307617 96.44806152 -97.51171875 96.91796875 C-98.11846436 97.3152417 -98.72520996 97.71251465 -99.3503418 98.12182617 C-101.61948625 99.32977535 -103.48687224 99.39267621 -106 99 C-104.95092829 92.70556973 -103.19154121 89.86590514 -98.125 85.9375 C-93.87212457 82.55415087 -89.79587214 79.07108229 -85.8125 75.375 C-82.64112461 72.43433378 -79.46822098 69.50664768 -76.1875 66.6875 C-64.36280046 56.40487175 -53.21278919 45.37597625 -42.15380859 34.28417969 C-39.97738731 32.10233092 -37.79557761 29.92597087 -35.61328125 27.75 C-34.20019963 26.33625848 -32.78742777 24.92220726 -31.375 23.5078125 C-30.7363501 22.87118683 -30.0977002 22.23456116 -29.43969727 21.5786438 C-25.63713557 17.75648837 -22.02133332 13.81931699 -18.50352478 9.73324585 C-12.91713815 3.29332442 -8.87045108 -1.29024743 0 0 Z " fill="#BA9E10" transform="translate(823,662)"/>
<path d="M0 0 C5.73333944 1.66788057 11.01040166 3.8967343 16.375 6.5 C25.34723349 10.8464933 34.55843241 14.55299046 43.82177734 18.23046875 C44.93762207 18.67648437 46.0534668 19.1225 47.203125 19.58203125 C48.19989258 19.97624268 49.19666016 20.3704541 50.22363281 20.77661133 C53.0156813 22.00690987 55.51187457 23.22968726 58 25 C59.3125 28.6875 59.3125 28.6875 60 32 C56.34385121 33.42175014 52.68171543 34.82674535 49.01367188 36.2175293 C47.16471856 36.92235909 45.32057243 37.63975848 43.4765625 38.35742188 C28.943196 43.84692716 28.943196 43.84692716 23 43 C16.02378279 39.81803439 13.00372693 32.13194906 9.8125 25.625 C9.30525391 24.62210938 8.79800781 23.61921875 8.27539062 22.5859375 C7.28863996 20.63035383 6.31028366 18.67050669 5.34130859 16.70605469 C4.49596926 15.00060489 3.6362211 13.30215009 2.75634766 11.61425781 C0.61231241 7.49308259 -0.46907802 4.69078018 0 0 Z " fill="#B99E0F" transform="translate(752,619)"/>
<path d="M0 0 C0.66 0.33 1.32 0.66 2 1 C1.01 2.32 0.02 3.64 -1 5 C-0.67515625 5.52980469 -0.3503125 6.05960938 -0.015625 6.60546875 C5.49205449 19.59088231 -0.00652227 41.97505368 -1 56 C1.64 55.67 4.28 55.34 7 55 C4.57960508 60.55267069 1.24550196 65.65800936 -3 70 C-3.99 70 -4.98 70 -6 70 C-6.44363044 61.67013057 -6.74855547 53.33768847 -7 45 C-7.02358582 44.25699646 -7.04717163 43.51399292 -7.07147217 42.74847412 C-7.22063965 37.94513062 -7.33004846 33.14297446 -7.39697266 28.33776855 C-7.42383242 26.74697482 -7.46130487 25.15632231 -7.50976562 23.56604004 C-7.96131231 8.1965197 -7.96131231 8.1965197 -2.39477539 2.25219727 C-1.93449951 1.83897217 -1.47422363 1.42574707 -1 1 C-0.67 0.67 -0.34 0.34 0 0 Z " fill="#D6433E" transform="translate(645,1204)"/>
<path d="M0 0 C0.66 0 1.32 0 2 0 C2.04667332 17.30649557 2.08196589 34.61297156 2.10362434 51.91951561 C2.113947 59.95482865 2.12802617 67.99010264 2.15087891 76.02539062 C2.17078257 83.027074 2.18370923 90.0287291 2.18817699 97.03043997 C2.19078952 100.73948962 2.19695048 104.44845837 2.21146011 108.15748215 C2.22750775 112.29301325 2.22798164 116.42840274 2.22705078 120.56396484 C2.23783661 122.41865135 2.23783661 122.41865135 2.24884033 124.31080627 C2.246091 125.43263809 2.24334167 126.55446991 2.24050903 127.71029663 C2.24235262 128.68924078 2.24419621 129.66818493 2.24609566 130.67679405 C2 133 2 133 0 135 C-0.15330087 129.06267204 -0.29704163 123.12514493 -0.4375 117.1875 C-0.4602298 116.24124756 -0.48295959 115.29499512 -0.50637817 114.32006836 C-0.83161076 100.5625174 -1.05088375 86.80621058 -1.19225883 73.04574013 C-1.21872239 70.49094703 -1.24638801 67.93616967 -1.27442932 65.38139343 C-1.29308111 63.67263817 -1.31171207 61.96388267 -1.33032227 60.25512695 C-1.3395575 59.40834098 -1.34879274 58.561555 -1.35830784 57.68910885 C-1.41309571 52.57103029 -1.45871517 47.45295922 -1.49838066 42.33474255 C-1.5254459 39.09571041 -1.56046837 35.8567973 -1.59744263 32.61786461 C-1.61307065 31.09454175 -1.6252494 29.57117915 -1.63378906 28.04780006 C-1.64594732 25.94442779 -1.67009611 23.84150896 -1.69702148 21.73828125 C-1.70732895 20.55274658 -1.71763641 19.36721191 -1.72825623 18.14575195 C-1.99845566 15.01787755 -2.77847686 12.86087962 -4 10 C-3.74246388 5.79357667 -2.94714103 3.06502668 0 0 Z " fill="#E49393" transform="translate(790,737)"/>
<path d="M0 0 C4.76846101 0.98033831 8.32103221 3.4678213 12.375 6.0625 C13.1175 6.51560547 13.86 6.96871094 14.625 7.43554688 C20.86709016 11.42232354 26.03203167 16.12812669 27.875 23.5 C27.91625 24.325 27.9575 25.15 28 26 C25.06001805 26.51449684 22.89352444 26.56465781 20.3125 24.93359375 C18.11278228 23.04202614 16.0648225 21.03901222 14 19 C12.7925837 17.86360819 11.58416787 16.72827788 10.375 15.59375 C9.08178552 14.35578154 7.79012986 13.11618272 6.5 11.875 C5.86384766 11.2773584 5.22769531 10.6797168 4.57226562 10.06396484 C0.09194088 5.66303516 0.09194088 5.66303516 -0.40625 2.0703125 C-0.2721875 1.38710937 -0.138125 0.70390625 0 0 Z " fill="#D55451" transform="translate(223,1054)"/>
<path d="M0 0 C1.32 0.66 2.64 1.32 4 2 C2.63782497 5.03126629 1.08455139 7.18349897 -1.22265625 9.56640625 C-1.84333984 10.21673828 -2.46402344 10.86707031 -3.10351562 11.53710938 C-4.41334529 12.89134004 -5.72324151 14.24550634 -7.03320312 15.59960938 C-7.65259766 16.24865234 -8.27199219 16.89769531 -8.91015625 17.56640625 C-9.47871338 18.15365479 -10.04727051 18.74090332 -10.63305664 19.34594727 C-12.22265339 21.06698639 -12.22265339 21.06698639 -13 24 C-16.34008991 26.77040168 -19.65949473 28.86036403 -24 29.3125 C-24.66 29.209375 -25.32 29.10625 -26 29 C-24.95092829 22.70556973 -23.19154121 19.86590514 -18.125 15.9375 C-11.80379866 10.91402874 -5.89931352 5.50808505 0 0 Z " fill="#C1A91A" transform="translate(743,732)"/>
<path d="M0 0 C0.33 0.66 0.66 1.32 1 2 C0.67 2.99 0.34 3.98 0 5 C-0.15083068 6.93566044 -0.27257155 8.8736757 -0.375 10.8125 C-0.86702626 16.99264797 -1.83331325 20.94442539 -6.4375 25.3125 C-8.76226819 26.8434449 -10.25513127 27.71604806 -13 28 C-13.66 27.67 -14.32 27.34 -15 27 C-13.22087425 22.02447883 -10.63355274 17.53423067 -8.0625 12.9375 C-7.61970703 12.13505859 -7.17691406 11.33261719 -6.72070312 10.50585938 C-6.28822266 9.72919922 -5.85574219 8.95253906 -5.41015625 8.15234375 C-4.82439819 7.1003479 -4.82439819 7.1003479 -4.22680664 6.02709961 C-2.94273031 3.90537109 -1.51872663 1.95892928 0 0 Z " fill="#EDEC1C" transform="translate(879,495)"/>
</svg>
